<svg id="Layer_1" data-name="Layer 1" xmlns="http://www.w3.org/2000/svg" viewBox="0 0 13.93 12.38"><defs><style>.cls-1{fill:#f49db6;}</style></defs><path id="Icon_awesome-shopping-cart" data-name="Icon awesome-shopping-cart" class="cls-1" d="M13.81,9.1l1.14-5a.58.58,0,0,0-.44-.7H4.89L4.66,2.27a.57.57,0,0,0-.56-.46H1.62A.58.58,0,0,0,1,2.39H1v.39a.58.58,0,0,0,.59.58H3.31L5,11.66A1.36,1.36,0,1,0,6.35,14a1.35,1.35,0,0,0,.5-1.85,1.58,1.58,0,0,0-.22-.29H11.7a1.35,1.35,0,1,0,1.91,0,1.46,1.46,0,0,0-.38-.27l.14-.59a.58.58,0,0,0-.44-.69l-.13,0H6.31l-.16-.77h7.09A.59.59,0,0,0,13.81,9.1Z" transform="translate(-1.03 -1.81)"/></svg>