<svg id="Layer_1" data-name="Layer 1" xmlns="http://www.w3.org/2000/svg" viewBox="0 0 13.15 11.13"><defs><style>.cls-1{fill:#f49db6;}</style></defs><path id="Path_1" data-name="Path 1" class="cls-1" d="M9.77,11.67a.44.44,0,0,0-.44.44.58.58,0,0,1-.57.57H2.88a.58.58,0,0,1-.57-.57V3.89a.58.58,0,0,1,.57-.57H8.76a.58.58,0,0,1,.57.57.45.45,0,0,0,.89,0A1.47,1.47,0,0,0,8.76,2.44H2.88A1.45,1.45,0,0,0,1.43,3.89v8.22a1.45,1.45,0,0,0,1.45,1.45H8.76a1.45,1.45,0,0,0,1.45-1.45A.44.44,0,0,0,9.77,11.67Z" transform="translate(-1.43 -2.44)"/><path id="Path_2" data-name="Path 2" class="cls-1" d="M11.7,4.9a.47.47,0,0,0-.32-.12.41.41,0,0,0-.31.12.45.45,0,0,0,0,.63h0l2.06,2H5a.45.45,0,0,0,0,.89h8.11l-2,2a.45.45,0,0,0,0,.63h0a.47.47,0,0,0,.31.12.39.39,0,0,0,.32-.13l2.61-2.6a.63.63,0,0,0,0-.88l0,0Z" transform="translate(-1.43 -2.44)"/></svg>